<svg width="30" height="30" viewBox="0 0 30 30" fill="none" xmlns="http://www.w3.org/2000/svg">
<path id="pointer" d="M28.7234 1.29884C28.1503 0.714834 27.4236 0.30492 26.6272 0.116502C25.8308 -0.0719154 24.9973 -0.0311406 24.2232 0.234112L2.99695 7.32734C2.14087 7.60747 1.39289 8.14635 0.856257 8.8696C0.319623 9.59285 0.0208031 10.4648 0.00104691 11.3651C-0.0187093 12.2654 0.241573 13.1496 0.745963 13.8956C1.25035 14.6417 1.97398 15.2129 2.81694 15.5303L10.6774 18.5295C10.8564 18.598 11.0194 18.7025 11.1561 18.8367C11.2929 18.9708 11.4006 19.1317 11.4724 19.3093L14.4726 27.1824C14.778 28.0131 15.3322 28.7296 16.0597 29.2341C16.7871 29.7386 17.6525 30.0066 18.5378 30.0017H18.6429C19.5444 29.9853 20.4183 29.6872 21.1419 29.1494C21.8656 28.6115 22.4027 27.8608 22.6781 27.0024L29.7735 5.75273C30.0315 4.98633 30.0699 4.16304 29.8844 3.37595C29.6988 2.58887 29.2967 1.86938 28.7234 1.29884ZM26.9983 4.80797L19.8279 26.0726C19.7447 26.3418 19.5774 26.5772 19.3507 26.7445C19.124 26.9118 18.8496 27.0022 18.5678 27.0024C18.2877 27.007 18.0128 26.9262 17.7797 26.7709C17.5466 26.6155 17.3663 26.3929 17.2628 26.1326L14.2626 18.2596C14.0451 17.6875 13.7097 17.1676 13.2781 16.7336C12.8465 16.2995 12.3284 15.9611 11.7575 15.7402L3.882 12.741C3.61633 12.6437 3.38795 12.4653 3.22914 12.2312C3.07033 11.9971 2.98911 11.7191 2.99695 11.4363C2.99718 11.1546 3.08758 10.8803 3.25493 10.6537C3.42227 10.427 3.65778 10.2599 3.927 10.1766L25.1982 3.0834C25.4424 2.98389 25.7103 2.95724 25.9693 3.00665C26.2284 3.05607 26.4675 3.17944 26.658 3.36186C26.8484 3.54427 26.9818 3.77792 27.0422 4.03455C27.1026 4.29118 27.0874 4.55981 26.9983 4.80797Z" fill="#3E4165"/>
</svg>
