<svg width="20" height="20" viewBox="0 0 20 20" fill="none" xmlns="http://www.w3.org/2000/svg">
<path id="vacation" d="M4.76113 5.80119e-05C4.63516 0.00202713 4.51511 0.0538946 4.42734 0.144277C4.33957 0.234659 4.29125 0.356171 4.29297 0.482146V0.987455C3.84542 0.762159 3.35515 0.647486 2.86436 0.647486C2.05231 0.647486 1.2398 0.955827 0.622977 1.57265C0.577335 1.61647 0.540894 1.66896 0.515791 1.72704C0.490688 1.78513 0.477427 1.84763 0.476783 1.91091C0.47614 1.97418 0.488128 2.03694 0.512044 2.09552C0.535961 2.1541 0.571326 2.20732 0.616068 2.25207C0.660811 2.29681 0.714031 2.33217 0.772611 2.35609C0.831192 2.38001 0.893957 2.39199 0.957228 2.39135C1.0205 2.39071 1.08301 2.37744 1.14109 2.35234C1.19917 2.32724 1.25166 2.2908 1.29549 2.24516C1.892 1.64864 2.73369 1.47113 3.48578 1.69247C2.28641 2.19679 1.43946 3.38385 1.43946 4.76241C1.43857 4.82544 1.45021 4.88801 1.47371 4.94649C1.49721 5.00497 1.5321 5.0582 1.57635 5.10308C1.6206 5.14796 1.67333 5.1836 1.73148 5.20792C1.78962 5.23225 1.85202 5.24477 1.91505 5.24477C1.97807 5.24477 2.04047 5.23225 2.09862 5.20792C2.15676 5.1836 2.20949 5.14796 2.25374 5.10308C2.29799 5.0582 2.33288 5.00497 2.35638 4.94649C2.37988 4.88801 2.39152 4.82544 2.39063 4.76241C2.39063 3.60642 3.20394 2.65049 4.29297 2.43186V12.6272C3.99859 12.7126 3.71262 12.802 3.44584 12.9003C2.59141 13.2151 1.8834 13.5919 1.36144 14.0465C0.839476 14.5012 0.48829 15.0668 0.48829 15.7009C0.488303 15.827 0.538413 15.948 0.6276 16.0372C0.716787 16.1263 0.837746 16.1765 0.963876 16.1765H19.0361C19.1623 16.1765 19.2832 16.1263 19.3724 16.0372C19.4616 15.948 19.5117 15.827 19.5117 15.7009C19.5117 15.0668 19.1605 14.5012 18.6386 14.0465C18.2388 13.6983 17.7285 13.3965 17.1282 13.1325V9.6028C17.6862 9.79602 18.085 10.3176 18.085 10.945C18.0841 11.008 18.0957 11.0706 18.1192 11.1291C18.1427 11.1876 18.1776 11.2408 18.2218 11.2857C18.2661 11.3306 18.3188 11.3662 18.377 11.3905C18.4351 11.4149 18.4975 11.4274 18.5605 11.4274C18.6236 11.4274 18.686 11.4149 18.7441 11.3905C18.8023 11.3662 18.855 11.3306 18.8992 11.2857C18.9435 11.2408 18.9784 11.1876 19.0019 11.1291C19.0254 11.0706 19.037 11.008 19.0361 10.945C19.0361 10.1589 18.6451 9.46419 18.0524 9.03061C18.2847 9.07379 18.5092 9.18829 18.6999 9.37894C18.7437 9.42458 18.7962 9.46102 18.8543 9.48613C18.9123 9.51123 18.9749 9.5245 19.0381 9.52514C19.1014 9.52578 19.1642 9.51379 19.2227 9.48988C19.2813 9.46596 19.3345 9.4306 19.3793 9.38585C19.424 9.34111 19.4594 9.28789 19.4833 9.22931C19.5072 9.17073 19.5192 9.10796 19.5186 9.04469C19.5179 8.98142 19.5047 8.91891 19.4796 8.86083C19.4545 8.80274 19.418 8.75025 19.3724 8.70643C18.951 8.28504 18.3991 8.07386 17.8472 8.07386C17.6032 8.07386 17.3609 8.12238 17.1282 8.20484V7.61593C17.1291 7.5523 17.1172 7.48914 17.0932 7.4302C17.0692 7.37126 17.0337 7.31772 16.9886 7.27277C16.9436 7.22782 16.89 7.19236 16.831 7.16849C16.772 7.14463 16.7088 7.13285 16.6452 7.13384C16.5192 7.13581 16.3992 7.18768 16.3114 7.27806C16.2236 7.36844 16.1753 7.48995 16.177 7.61593V8.20112C15.9477 8.12127 15.7093 8.07386 15.4692 8.07386C14.9173 8.07386 14.3654 8.28504 13.944 8.70643C13.8984 8.75025 13.8619 8.80274 13.8368 8.86083C13.8117 8.91891 13.7985 8.98142 13.7978 9.04469C13.7972 9.10796 13.8092 9.17073 13.8331 9.22931C13.857 9.28789 13.8924 9.34111 13.9371 9.38585C13.9818 9.4306 14.0351 9.46596 14.0936 9.48988C14.1522 9.51379 14.215 9.52578 14.2783 9.52514C14.3415 9.5245 14.404 9.51123 14.4621 9.48613C14.5202 9.46102 14.5727 9.42458 14.6165 9.37894C14.8072 9.18829 15.0317 9.07379 15.264 9.03061C14.6713 9.46419 14.2803 10.1589 14.2803 10.945C14.2794 11.008 14.291 11.0706 14.3145 11.1291C14.338 11.1876 14.3729 11.2408 14.4172 11.2857C14.4614 11.3306 14.5141 11.3662 14.5723 11.3905C14.6304 11.4149 14.6928 11.4274 14.7559 11.4274C14.8189 11.4274 14.8813 11.4149 14.9394 11.3905C14.9976 11.3662 15.0503 11.3306 15.0945 11.2857C15.1388 11.2408 15.1737 11.1876 15.1972 11.1291C15.2207 11.0706 15.2323 11.008 15.2314 10.945C15.2314 10.3217 15.6249 9.80283 16.177 9.60651V12.774C14.5125 12.2229 12.3631 11.8962 10 11.8962V8.65348C10.5551 8.84826 10.9512 9.36847 10.9512 9.99386C10.9503 10.0569 10.9619 10.1194 10.9854 10.1779C11.0089 10.2364 11.0438 10.2896 11.0881 10.3345C11.1323 10.3794 11.185 10.415 11.2432 10.4394C11.3013 10.4637 11.3637 10.4762 11.4268 10.4762C11.4898 10.4762 11.5522 10.4637 11.6103 10.4394C11.6685 10.415 11.7212 10.3794 11.7654 10.3345C11.8097 10.2896 11.8446 10.2364 11.8681 10.1779C11.8916 10.1194 11.9032 10.0569 11.9023 9.99386C11.9023 9.19829 11.503 8.495 10.8982 8.06272C11.1329 8.10495 11.3624 8.22409 11.5661 8.42777C11.6099 8.47341 11.6624 8.50985 11.7205 8.53496C11.7786 8.56006 11.8411 8.57332 11.9043 8.57397C11.9676 8.57461 12.0304 8.56262 12.089 8.53871C12.1475 8.51479 12.2008 8.47942 12.2455 8.43468C12.2903 8.38994 12.3256 8.33672 12.3495 8.27814C12.3735 8.21956 12.3854 8.15679 12.3848 8.09352C12.3842 8.03025 12.3709 7.96774 12.3458 7.90965C12.3207 7.85157 12.2842 7.79908 12.2386 7.75526C11.8145 7.33113 11.2639 7.11898 10.7134 7.11898C10.4714 7.11898 10.2312 7.16707 10 7.24902V6.66476C10.0009 6.60113 9.98897 6.53797 9.96499 6.47903C9.94101 6.42008 9.90545 6.36655 9.86041 6.3216C9.81537 6.27664 9.76177 6.24119 9.70278 6.21732C9.64379 6.19346 9.58061 6.18168 9.51698 6.18267C9.39101 6.18464 9.27097 6.23651 9.1832 6.32689C9.09543 6.41727 9.0471 6.53878 9.04883 6.66476V7.24902C8.81758 7.16707 8.57744 7.11898 8.33545 7.11898C7.78489 7.11898 7.23436 7.33113 6.81023 7.75526C6.76459 7.79908 6.72815 7.85157 6.70304 7.90965C6.67794 7.96774 6.66468 8.03025 6.66403 8.09352C6.66339 8.15679 6.67538 8.21956 6.69929 8.27814C6.72321 8.33672 6.75858 8.38994 6.80332 8.43468C6.84806 8.47942 6.90128 8.51479 6.95986 8.53871C7.01844 8.56262 7.08121 8.57461 7.14448 8.57397C7.20775 8.57332 7.27026 8.56006 7.32835 8.53496C7.38643 8.50985 7.43892 8.47341 7.48274 8.42777C7.68642 8.22409 7.91588 8.10495 8.1506 8.06272C7.54586 8.495 7.14649 9.19829 7.14649 9.99386C7.1456 10.0569 7.15724 10.1194 7.18074 10.1779C7.20424 10.2364 7.23913 10.2896 7.28338 10.3345C7.32763 10.3794 7.38036 10.415 7.4385 10.4394C7.49665 10.4637 7.55905 10.4762 7.62207 10.4762C7.6851 10.4762 7.7475 10.4637 7.80564 10.4394C7.86379 10.415 7.91652 10.3794 7.96077 10.3345C8.00502 10.2896 8.03991 10.2364 8.06341 10.1779C8.08691 10.1194 8.09855 10.0569 8.09766 9.99386C8.09766 9.36847 8.49377 8.84826 9.04883 8.65348V11.9148C7.67008 11.9664 6.38537 12.1319 5.24414 12.3857V2.43186C6.33318 2.65049 7.14649 3.60642 7.14649 4.76241C7.1456 4.82544 7.15724 4.88801 7.18074 4.94649C7.20424 5.00497 7.23913 5.0582 7.28338 5.10308C7.32763 5.14796 7.38036 5.1836 7.4385 5.20792C7.49665 5.23225 7.55905 5.24477 7.62207 5.24477C7.6851 5.24477 7.7475 5.23225 7.80564 5.20792C7.86379 5.1836 7.91652 5.14796 7.96077 5.10308C8.00502 5.0582 8.03991 5.00497 8.06341 4.94649C8.08691 4.88801 8.09855 4.82544 8.09766 4.76241C8.09766 3.38385 7.25071 2.19679 6.05134 1.69247C6.80343 1.47113 7.64512 1.64864 8.24163 2.24516C8.28546 2.2908 8.33795 2.32724 8.39603 2.35234C8.45411 2.37744 8.51662 2.39071 8.57989 2.39135C8.64316 2.39199 8.70593 2.38001 8.76451 2.35609C8.82309 2.33217 8.87631 2.29681 8.92105 2.25207C8.96579 2.20732 9.00116 2.1541 9.02507 2.09552C9.04899 2.03694 9.06098 1.97418 9.06034 1.91091C9.05969 1.84763 9.04643 1.78513 9.02133 1.72704C8.99622 1.66896 8.95978 1.61647 8.91414 1.57265C8.29732 0.955827 7.48481 0.647486 6.67276 0.647486C6.18197 0.647486 5.6917 0.762159 5.24414 0.987455V0.482146C5.24502 0.418517 5.23311 0.355361 5.20913 0.296417C5.18516 0.237473 5.1496 0.183939 5.10456 0.138986C5.05952 0.0940331 5.00591 0.0585749 4.94692 0.0347113C4.88793 0.0108478 4.82475 -0.000935777 4.76113 5.80119e-05ZM17.6094 0.00656016C16.5644 0.00656016 15.707 0.863901 15.707 1.9089C15.707 2.9539 16.5644 3.81124 17.6094 3.81124C18.6544 3.81124 19.5117 2.9539 19.5117 1.9089C19.5117 0.863901 18.6544 0.00656016 17.6094 0.00656016ZM17.6094 0.957731C18.1403 0.957731 18.5605 1.37795 18.5605 1.9089C18.5605 2.43985 18.1403 2.86007 17.6094 2.86007C17.0784 2.86007 16.6582 2.43985 16.6582 1.9089C16.6582 1.37795 17.0784 0.957731 17.6094 0.957731ZM12.1401 1.43332C11.4543 1.43332 10.9266 1.91289 10.6289 2.51918C10.0198 2.68158 9.52442 3.15416 9.52442 3.81124C9.52442 4.59359 10.1688 5.238 10.9512 5.238H13.3291C14.1114 5.238 14.7559 4.59359 14.7559 3.81124C14.7559 3.15416 14.2605 2.68158 13.6514 2.51918C13.3537 1.91289 12.826 1.43332 12.1401 1.43332ZM12.1401 2.38449C12.4301 2.38449 12.7263 2.60691 12.8842 3.02727C12.9182 3.11782 12.979 3.19584 13.0585 3.25094C13.138 3.30604 13.2324 3.33559 13.3291 3.33566C13.5974 3.33566 13.8047 3.54292 13.8047 3.81124C13.8047 4.07957 13.5974 4.28683 13.3291 4.28683H10.9512C10.6828 4.28683 10.4756 4.07957 10.4756 3.81124C10.4756 3.54292 10.6828 3.33566 10.9512 3.33566C11.0479 3.33559 11.1423 3.30604 11.2218 3.25094C11.3013 3.19584 11.3621 3.11782 11.3961 3.02727C11.5539 2.60691 11.8502 2.38449 12.1401 2.38449ZM10 12.8474C12.424 12.8474 14.6181 13.2115 16.177 13.7772V14.2741C16.1761 14.3371 16.1878 14.3997 16.2113 14.4582C16.2348 14.5167 16.2697 14.5699 16.3139 14.6148C16.3582 14.6597 16.4109 14.6953 16.4691 14.7196C16.5272 14.744 16.5896 14.7565 16.6526 14.7565C16.7157 14.7565 16.778 14.744 16.8362 14.7196C16.8943 14.6953 16.9471 14.6597 16.9913 14.6148C17.0356 14.5699 17.0705 14.5167 17.094 14.4582C17.1175 14.3997 17.1291 14.3371 17.1282 14.2741V14.1905C17.4862 14.3752 17.7896 14.5686 18.0134 14.7636C18.1985 14.9248 18.3221 15.0775 18.4101 15.2253H1.58994C1.6779 15.0775 1.80151 14.9248 1.98657 14.7636C2.37912 14.4217 2.99387 14.0806 3.77466 13.793C5.13115 13.2932 6.9817 12.9489 9.04883 12.8669V13.323C9.04794 13.386 9.05958 13.4485 9.08308 13.507C9.10658 13.5655 9.14147 13.6187 9.18572 13.6636C9.22997 13.7085 9.2827 13.7441 9.34085 13.7685C9.39899 13.7928 9.46139 13.8053 9.52442 13.8053C9.58744 13.8053 9.64984 13.7928 9.70798 13.7685C9.76613 13.7441 9.81886 13.7085 9.86311 13.6636C9.90736 13.6187 9.94225 13.5655 9.96575 13.507C9.98925 13.4485 10.0009 13.386 10 13.323V12.8474ZM2.86622 17.1276C2.21538 17.1276 1.58724 17.4011 1.08742 17.6543C0.587592 17.9075 0.217987 18.1633 0.217987 18.1633C0.164395 18.1979 0.118293 18.2428 0.0824221 18.2955C0.0465512 18.3482 0.0216433 18.4076 0.00917864 18.4702C-0.00328604 18.5327 -0.00305319 18.5971 0.00986396 18.6595C0.0227811 18.7219 0.0481189 18.7811 0.0843706 18.8336C0.120622 18.886 0.167048 18.9307 0.220889 18.9648C0.27473 18.999 0.334886 19.0219 0.397782 19.0324C0.460678 19.0428 0.525031 19.0405 0.587014 19.0256C0.648998 19.0106 0.707347 18.9834 0.758593 18.9455C0.758593 18.9455 1.07839 18.7257 1.51749 18.5033C1.95659 18.2809 2.5169 18.0788 2.86622 18.0788C3.21553 18.0788 3.44043 18.2321 3.78488 18.4699C4.12932 18.7077 4.5933 19.03 5.24414 19.03C5.89499 19.03 6.35897 18.7077 6.70341 18.4699C7.04785 18.2321 7.27276 18.0788 7.62207 18.0788C7.97139 18.0788 8.19629 18.2321 8.54073 18.4699C8.88518 18.7077 9.34916 19.03 10 19.03C10.6508 19.03 11.1148 18.7077 11.4593 18.4699C11.8037 18.2321 12.0286 18.0788 12.3779 18.0788C12.7272 18.0788 12.9521 18.2321 13.2966 18.4699C13.641 18.7077 14.105 19.03 14.7559 19.03C15.4067 19.03 15.8707 18.7077 16.2151 18.4699C16.5596 18.2321 16.7845 18.0788 17.1338 18.0788C17.4831 18.0788 18.0434 18.2809 18.4825 18.5033C18.9216 18.7257 19.2414 18.9455 19.2414 18.9455C19.2927 18.9834 19.351 19.0106 19.413 19.0256C19.475 19.0405 19.5393 19.0428 19.6022 19.0324C19.6651 19.0219 19.7253 18.999 19.7791 18.9648C19.833 18.9307 19.8794 18.886 19.9156 18.8336C19.9519 18.7811 19.9772 18.7219 19.9901 18.6595C20.0031 18.5971 20.0033 18.5327 19.9908 18.4702C19.9784 18.4076 19.9534 18.3482 19.9176 18.2955C19.8817 18.2428 19.8356 18.1979 19.782 18.1633C19.782 18.1633 19.4124 17.9075 18.9126 17.6543C18.4128 17.4011 17.7846 17.1276 17.1338 17.1276C16.4829 17.1276 16.019 17.45 15.6745 17.6878C15.3301 17.9255 15.1052 18.0788 14.7559 18.0788C14.4065 18.0788 14.1816 17.9255 13.8372 17.6878C13.4928 17.45 13.0288 17.1276 12.3779 17.1276C11.7271 17.1276 11.2631 17.45 10.9187 17.6878C10.5742 17.9255 10.3493 18.0788 10 18.0788C9.65069 18.0788 9.42578 17.9255 9.08134 17.6878C8.7369 17.45 8.27291 17.1276 7.62207 17.1276C6.97123 17.1276 6.50725 17.45 6.16281 17.6878C5.81836 17.9255 5.59346 18.0788 5.24414 18.0788C4.89483 18.0788 4.66993 17.9255 4.32548 17.6878C3.98104 17.45 3.51706 17.1276 2.86622 17.1276Z" fill="#3C4C0B"/>
</svg>
