<svg width="20" height="20" viewBox="0 0 20 20" fill="none" xmlns="http://www.w3.org/2000/svg">
<g id="wedding">
<path id="Vector" d="M7.98094 6.92599C8.04947 6.959 8.12455 6.97615 8.20062 6.97615C8.27668 6.97615 8.35177 6.959 8.4203 6.92599C9.2201 6.57258 9.92235 6.03063 10.4669 5.34652C10.8173 5.56342 11.1176 5.7247 11.2734 5.80256C11.3517 5.84259 11.4384 5.86346 11.5264 5.86346C11.6144 5.86346 11.7011 5.84259 11.7794 5.80256C15.9673 3.8616 15.4723 0.891751 13.6926 0.163194C13.3375 0.0164371 12.9496 -0.0325923 12.5692 0.0211965C12.1888 0.0749852 11.8297 0.229631 11.5292 0.469076C11.1756 0.186726 10.7415 0.0239789 10.2894 0.00430579C9.83735 -0.0153673 9.39073 0.109051 9.01395 0.359616C8.63718 0.610182 8.34972 0.973944 8.19305 1.39844C8.03637 1.82293 8.01858 2.28622 8.14222 2.72149C6.27356 1.43678 3.42051 4.63464 7.98094 6.92599ZM11.3178 1.05303C11.3723 1.10346 11.4438 1.13147 11.5181 1.13147C11.5923 1.13147 11.6638 1.10346 11.7183 1.05303C11.9387 0.827113 12.2215 0.672136 12.5305 0.607959C12.8396 0.543782 13.1607 0.573327 13.4529 0.69281C13.745 0.812292 13.9948 1.01627 14.1703 1.27861C14.3458 1.54095 14.4389 1.84971 14.4378 2.16534C14.4378 3.8894 12.0186 5.09625 11.5125 5.31871C11.2417 5.18211 10.9782 5.03175 10.7228 4.86823C10.8729 4.56907 10.9296 4.23167 10.8854 3.89988C10.8413 3.56809 10.6984 3.25724 10.4753 3.00774C10.2521 2.75823 9.95914 2.5816 9.63432 2.5008C9.3095 2.41999 8.9679 2.43876 8.65388 2.55464C8.55943 2.21415 8.58187 1.85182 8.71763 1.52559C8.85339 1.19936 9.09462 0.928076 9.40274 0.755116C9.71087 0.582156 10.0681 0.517512 10.4173 0.571521C10.7665 0.625529 11.0875 0.795071 11.329 1.05303H11.3178ZM7.98094 3.34438C8.03386 3.39568 8.10467 3.42437 8.17837 3.42437C8.25208 3.42437 8.32289 3.39568 8.37581 3.34438C8.52967 3.17992 8.72983 3.06604 8.94982 3.0178C9.16981 2.96957 9.39925 2.98925 9.60781 3.07424C9.81637 3.15923 9.99422 3.30553 10.1178 3.49378C10.2414 3.68204 10.305 3.90339 10.3001 4.12855C10.3001 5.37433 8.51485 6.25861 8.2034 6.42545C4.26585 4.43443 6.78522 2.0986 8.00875 3.34438H7.98094Z" fill="#481E20"/>
<path id="Vector_2" d="M10 7.94922C9.03892 7.29358 7.91721 6.91252 6.75563 6.84705C5.59406 6.78158 4.43664 7.03419 3.40797 7.57768C2.3793 8.12117 1.51837 8.93495 0.917853 9.9314C0.31734 10.9279 0 12.0692 0 13.2326C0 14.3961 0.31734 15.5374 0.917853 16.5339C1.51837 17.5303 2.3793 18.3441 3.40797 18.8876C4.43664 19.4311 5.59406 19.6837 6.75563 19.6182C7.91721 19.5528 9.03892 19.1717 10 18.5161C10.9611 19.1717 12.0828 19.5528 13.2444 19.6182C14.4059 19.6837 15.5634 19.4311 16.592 18.8876C17.6207 18.3441 18.4816 17.5303 19.0821 16.5339C19.6827 15.5374 20 14.3961 20 13.2326C20 12.0692 19.6827 10.9279 19.0821 9.9314C18.4816 8.93495 17.6207 8.12117 16.592 7.57768C15.5634 7.03419 14.4059 6.78158 13.2444 6.84705C12.0828 6.91252 10.9611 7.29358 10 7.94922ZM0.54544 13.2215C0.549448 12.1755 0.833841 11.1496 1.369 10.2508C1.90416 9.35197 2.67052 8.61307 3.58825 8.11104C4.50598 7.60901 5.54153 7.36222 6.58705 7.39636C7.63256 7.4305 8.64981 7.74432 9.53283 8.30515C9.23597 8.55014 8.9623 8.82195 8.71529 9.11713C7.71103 8.54396 6.53152 8.35874 5.39991 8.59653C4.26831 8.83431 3.2631 9.47861 2.57447 10.4075C1.88584 11.3364 1.56155 12.4855 1.66296 13.6374C1.76437 14.7892 2.28445 15.864 3.12479 16.6583C3.96513 17.4526 5.06745 17.9113 6.22319 17.9477C7.37894 17.9841 8.50794 17.5957 9.39661 16.8558C10.2853 16.116 10.872 15.0761 11.0457 13.9329C11.2194 12.7897 10.9681 11.6225 10.3393 10.6521C10.5735 10.352 10.8487 10.0861 11.1568 9.86238C11.6867 10.6136 12.0318 11.4793 12.1639 12.3891C12.296 13.2989 12.2115 14.227 11.9172 15.098C11.6228 15.9689 11.127 16.7581 10.4701 17.4012C9.8132 18.0443 9.01371 18.5233 8.13672 18.7991C7.25973 19.0748 6.33002 19.1397 5.42325 18.9883C4.51647 18.8369 3.65825 18.4735 2.91843 17.9278C2.17861 17.382 1.57809 16.6693 1.16573 15.8477C0.753383 15.026 0.540853 14.1186 0.54544 13.1993V13.2215ZM8.37604 9.56762C7.62261 10.6392 7.21828 11.9172 7.21828 13.2271C7.21828 14.537 7.62261 15.815 8.37604 16.8866C7.74159 17.2316 7.02833 17.4057 6.30627 17.3919C5.5842 17.3781 4.87814 17.1768 4.25735 16.8077C3.63657 16.4386 3.1224 15.9145 2.7653 15.2868C2.4082 14.6591 2.22044 13.9493 2.22044 13.2271C2.22044 12.5049 2.4082 11.7951 2.7653 11.1674C3.1224 10.5396 3.63657 10.0155 4.25735 9.64647C4.87814 9.27742 5.5842 9.07611 6.30627 9.06228C7.02833 9.04846 7.74159 9.2226 8.37604 9.56762ZM9.99444 11.1582C10.3593 11.7856 10.5515 12.4985 10.5515 13.2243C10.5515 13.9501 10.3593 14.663 9.99444 15.2904C9.62957 14.663 9.43736 13.9501 9.43736 13.2243C9.43736 12.4985 9.62957 11.7856 9.99444 11.1582ZM11.624 9.55649C12.2584 9.21147 12.9717 9.03733 13.6937 9.05116C14.4158 9.06498 15.1219 9.2663 15.7426 9.63535C16.3634 10.0044 16.8776 10.5285 17.2347 11.1562C17.5918 11.784 17.7796 12.4938 17.7796 13.216C17.7796 13.9382 17.5918 14.648 17.2347 15.2757C16.8776 15.9034 16.3634 16.4275 15.7426 16.7966C15.1219 17.1656 14.4158 17.3669 13.6937 17.3808C12.9717 17.3946 12.2584 17.2205 11.624 16.8754C12.3774 15.8039 12.7817 14.5259 12.7817 13.216C12.7817 11.906 12.3774 10.628 11.624 9.55649ZM10.4672 18.1379C10.7654 17.8944 11.0392 17.6224 11.2847 17.3259C12.2899 17.8978 13.4699 18.0813 14.6013 17.8418C15.7327 17.6023 16.7371 16.9563 17.4243 16.0262C18.1115 15.096 18.434 13.9462 18.3306 12.7944C18.2272 11.6425 17.7052 10.5685 16.8633 9.77564C16.0213 8.98275 14.918 8.52599 13.762 8.49179C12.606 8.45759 11.4776 8.84833 10.5903 9.59006C9.70303 10.3318 9.11841 11.3731 8.9471 12.5168C8.7758 13.6605 9.0297 14.8274 9.66075 15.7965C9.42498 16.0953 9.14999 16.361 8.84321 16.5862C8.00642 15.4007 7.64099 13.9461 7.81813 12.5059C7.99526 11.0657 8.70228 9.74298 9.8014 8.79558C10.9005 7.84817 12.313 7.34392 13.7636 7.38109C15.2142 7.41826 16.599 7.99418 17.6482 8.99663C18.6973 9.99908 19.3357 11.3562 19.4388 12.8037C19.542 14.2511 19.1025 15.685 18.2061 16.8261C17.3097 17.9672 16.0206 18.7337 14.5899 18.9762C13.1592 19.2187 11.6895 18.9199 10.4672 18.1379Z" fill="#481E20"/>
</g>
</svg>
