<svg width="20" height="20" viewBox="0 0 20 20" fill="none" xmlns="http://www.w3.org/2000/svg">
<path id="medical" d="M16.9516 14.8806L19.6278 11.765C19.7964 11.5699 19.9129 11.3354 19.9666 11.0832C20.0202 10.831 20.0092 10.5693 19.9345 10.3225L18.391 5.17689C18.3266 4.96308 18.1875 4.77951 17.9991 4.6596C17.8108 4.53969 17.5856 4.49141 17.3646 4.52354C17.1436 4.55567 16.9415 4.66608 16.7951 4.83467C16.6486 5.00327 16.5676 5.21883 16.5667 5.44214C16.5667 5.46395 16.5674 5.48577 16.5689 5.50575L16.784 8.64222C16.679 8.6332 16.5733 8.64655 16.4739 8.68136C16.3744 8.71618 16.2834 8.77169 16.207 8.84422L13.5653 11.3632C13.2669 11.6486 13.0292 11.9914 12.8664 12.3709C12.7037 12.7505 12.6193 13.159 12.6183 13.5719V15.981C12.4528 16.0786 12.3155 16.2176 12.2201 16.3844C12.1247 16.5512 12.0744 16.7399 12.0741 16.9321V19.6506C12.0741 19.7281 12.1049 19.8024 12.1597 19.8572C12.2145 19.912 12.2888 19.9427 12.3663 19.9427C12.4438 19.9427 12.5181 19.912 12.5728 19.8572C12.6276 19.8024 12.6584 19.7281 12.6584 19.6506V17.6349H16.5667V19.6506C16.5667 19.7281 16.5975 19.8024 16.6523 19.8572C16.7071 19.912 16.7814 19.9427 16.8589 19.9427C16.9363 19.9427 17.0106 19.912 17.0654 19.8572C17.1202 19.8024 17.151 19.7281 17.151 19.6506V16.9321C17.1508 16.7445 17.1028 16.5601 17.0116 16.3962C16.9205 16.2322 16.7891 16.0942 16.6298 15.9951V15.7481C16.63 15.4298 16.7441 15.122 16.9516 14.8806ZM16.5667 17.0506H12.6584V16.9321C12.6591 16.7932 12.7148 16.6603 12.8133 16.5625C12.9119 16.4647 13.0452 16.4099 13.184 16.4103H16.041C16.1799 16.4099 16.3132 16.4647 16.4117 16.5625C16.5103 16.6603 16.566 16.7932 16.5667 16.9321L16.5667 17.0506ZM16.5083 14.4999C16.2099 14.8474 16.0457 15.2901 16.0455 15.7481V15.8261C16.044 15.8261 16.0426 15.826 16.041 15.826H13.2026V13.5719C13.2034 13.238 13.2717 12.9077 13.4033 12.6008C13.5349 12.2939 13.7272 12.0168 13.9685 11.786L16.6103 9.26695C16.6412 9.23767 16.6823 9.22158 16.7249 9.22211C16.7674 9.22265 16.8081 9.23975 16.8383 9.26979L16.8601 9.29192C16.8683 9.3002 16.8763 9.30864 16.884 9.31723C16.8865 9.32035 16.8891 9.32339 16.8918 9.32639C17.0366 9.49019 17.1131 9.70328 17.1056 9.9218C17.098 10.1403 17.007 10.3476 16.8513 10.5011L15.3855 11.9461C15.3318 12.0008 15.3017 12.0745 15.3018 12.1511C15.3019 12.2278 15.3321 12.3014 15.3859 12.356C15.4397 12.4106 15.5129 12.4418 15.5895 12.443C15.6662 12.4441 15.7403 12.4151 15.7957 12.3621L17.2615 10.9171C17.5107 10.6713 17.6618 10.3431 17.6865 9.994C17.7112 9.64485 17.6078 9.29868 17.3956 9.02031L17.1517 5.46329C17.1512 5.45625 17.1509 5.4492 17.151 5.44214C17.1519 5.35916 17.1825 5.27926 17.2373 5.21687C17.292 5.15447 17.3672 5.1137 17.4494 5.10192C17.5315 5.09014 17.6151 5.10812 17.6852 5.15262C17.7552 5.19712 17.8071 5.2652 17.8313 5.34457L19.3749 10.4904C19.4212 10.6433 19.428 10.8055 19.3947 10.9617C19.3614 11.118 19.2892 11.2633 19.1846 11.3842L16.5083 14.4999ZM7.38175 15.981V13.5159C7.38074 13.1029 7.29633 12.6944 7.13359 12.3148C6.97086 11.9353 6.73314 11.5925 6.4347 11.307L3.79314 8.78817C3.71668 8.71562 3.6257 8.66012 3.52621 8.62532C3.42672 8.59052 3.32098 8.57722 3.21597 8.58628L3.43082 5.45285C3.43249 5.43186 3.43331 5.41001 3.43331 5.38605C3.43239 5.1628 3.35135 4.94729 3.20494 4.77874C3.05853 4.6102 2.85648 4.49981 2.63555 4.46766C2.41462 4.43551 2.18949 4.48374 2.00112 4.60357C1.81274 4.7234 1.67365 4.90687 1.60913 5.1206L0.0654735 10.2664C-0.00917029 10.5132 -0.0201898 10.7748 0.0334398 11.027C0.0870694 11.2792 0.203606 11.5137 0.372211 11.7088L3.04848 14.8244C3.25589 15.0659 3.37002 15.3737 3.37021 15.692V15.9951C3.21099 16.0943 3.07962 16.2323 2.98846 16.3962C2.8973 16.5601 2.84935 16.7445 2.84913 16.9321V19.6506C2.84913 19.7281 2.87991 19.8024 2.93469 19.8572C2.98948 19.912 3.06378 19.9427 3.14126 19.9427C3.21874 19.9427 3.29304 19.912 3.34783 19.8572C3.40261 19.8024 3.43339 19.7281 3.43339 19.6506V17.6349H7.34163V19.6506C7.34163 19.7281 7.37241 19.8024 7.42719 19.8572C7.48198 19.912 7.55628 19.9427 7.63376 19.9427C7.71124 19.9427 7.78554 19.912 7.84033 19.8572C7.89511 19.8024 7.92589 19.7281 7.92589 19.6506V16.9321C7.92565 16.7399 7.87533 16.5512 7.77991 16.3844C7.6845 16.2176 7.54727 16.0786 7.38175 15.981ZM0.815315 11.328C0.710824 11.2071 0.63859 11.0618 0.60533 10.9056C0.572069 10.7493 0.578863 10.5872 0.625079 10.4343L2.16881 5.28825C2.19306 5.20887 2.2449 5.14079 2.31496 5.0963C2.38503 5.05181 2.46869 5.03385 2.55084 5.04566C2.63299 5.05747 2.70821 5.09828 2.7629 5.1607C2.81759 5.22313 2.84815 5.30306 2.84905 5.38605C2.84905 5.39283 2.84897 5.39957 2.84815 5.40973L2.60444 8.96387C2.39223 9.24231 2.28878 9.58855 2.31348 9.93776C2.33817 10.287 2.48931 10.6152 2.73859 10.861L4.2043 12.3061C4.23162 12.333 4.26398 12.3543 4.29953 12.3687C4.33508 12.3832 4.37312 12.3905 4.41148 12.3902C4.44985 12.3899 4.48778 12.3821 4.52312 12.3672C4.55846 12.3522 4.59052 12.3305 4.61745 12.3032C4.64439 12.2758 4.66568 12.2435 4.68011 12.2079C4.69454 12.1724 4.70183 12.1343 4.70156 12.096C4.70129 12.0576 4.69346 12.0197 4.67853 11.9843C4.6636 11.949 4.64185 11.9169 4.61453 11.89L3.14885 10.445C2.99298 10.2914 2.90194 10.0838 2.89449 9.86511C2.88704 9.64639 2.96375 9.43315 3.10881 9.26929C3.11878 9.25795 3.12895 9.24681 3.14188 9.23392L3.16112 9.21421C3.19133 9.184 3.23212 9.16675 3.27483 9.16613C3.31755 9.16551 3.35882 9.18157 3.38988 9.2109L6.03144 11.7298C6.27281 11.9606 6.46508 12.2377 6.59672 12.5446C6.72835 12.8516 6.79664 13.1819 6.79749 13.5159V15.826H3.95899C3.95743 15.826 3.95599 15.8261 3.95447 15.8261V15.692C3.95426 15.234 3.79011 14.7912 3.49174 14.4438L0.815315 11.328ZM7.34163 17.0506H3.43339V16.9321C3.43406 16.7932 3.48977 16.6603 3.58831 16.5625C3.68684 16.4647 3.82015 16.4099 3.95899 16.4103H6.81599C6.95484 16.4099 7.08816 16.4647 7.1867 16.5625C7.28524 16.6603 7.34096 16.7932 7.34163 16.9321V17.0506ZM10.9355 10.6253C11.8497 10.3443 12.5781 10.0526 12.7098 9.50778C12.7324 9.41816 12.7361 9.32485 12.7208 9.23372C12.7055 9.14259 12.6715 9.05562 12.6209 8.97829C12.4224 8.66832 11.9625 8.46375 11.3586 8.29665C12.3463 8.0645 13.092 7.77755 13.2365 7.22441C13.2585 7.14328 13.2636 7.05849 13.2515 6.9753C13.2395 6.89211 13.2104 6.81228 13.1662 6.74076C12.9832 6.4385 12.55 6.22778 11.7174 6.03614C11.6801 6.02753 11.6413 6.02638 11.6035 6.03273C11.5657 6.03909 11.5295 6.05283 11.4969 6.07318C11.4313 6.11428 11.3846 6.17979 11.3672 6.2553C11.3498 6.3308 11.3632 6.41012 11.4043 6.4758C11.4454 6.54148 11.5109 6.58814 11.5864 6.60552C12.4411 6.8023 12.6264 6.97731 12.6665 7.04341C12.6702 7.04805 12.6725 7.0536 12.6734 7.05948C12.6742 7.06536 12.6734 7.07135 12.6711 7.07683C12.653 7.14616 12.5411 7.3304 11.894 7.54322C11.4379 7.69322 10.849 7.81483 10.2641 7.93063V5.40444H13.0927L13.0931 5.40448L13.094 5.40444H14.8124C14.8982 5.40444 14.9821 5.37981 15.0543 5.33348C15.1265 5.28715 15.1839 5.22107 15.2196 5.14309C15.2553 5.06511 15.2679 4.97852 15.2559 4.89359C15.2438 4.80867 15.2077 4.72899 15.1516 4.66402L13.2058 2.40683C12.9489 2.10727 12.5982 1.90346 12.2108 1.82854C11.8234 1.75363 11.422 1.81202 11.072 1.99422L10.2641 2.41208V1.90269C10.486 1.83289 10.6757 1.68594 10.7986 1.48844C10.9216 1.29095 10.9698 1.05595 10.9345 0.825992C10.8992 0.596036 10.7827 0.386321 10.6061 0.234808C10.4296 0.0832955 10.2046 0 9.97198 0C9.73933 0 9.51436 0.0832955 9.33781 0.234808C9.16126 0.386321 9.04479 0.596036 9.00949 0.825992C8.97418 1.05595 9.02237 1.29095 9.14534 1.48844C9.2683 1.68594 9.45791 1.83289 9.67984 1.90269V2.41216L8.87197 1.99422C8.52194 1.81203 8.12057 1.75364 7.73314 1.82855C7.34571 1.90347 6.99504 2.10728 6.73817 2.40683L4.7923 4.66402C4.7363 4.72899 4.70012 4.80867 4.68807 4.89359C4.67603 4.97852 4.68862 5.06511 4.72435 5.14309C4.76008 5.22107 4.81744 5.28715 4.88963 5.33348C4.96182 5.37981 5.04579 5.40444 5.13156 5.40444H6.84996L6.85081 5.40448L6.85128 5.40444H9.67984V7.93063C9.09504 7.81483 8.50606 7.69322 8.04995 7.54322C7.40286 7.33036 7.29092 7.14616 7.27281 7.07679C7.27053 7.07131 7.26977 7.06533 7.27059 7.05946C7.27141 7.05359 7.27379 7.04805 7.27748 7.04341C7.31752 6.97731 7.50285 6.8023 8.35739 6.60556C8.39508 6.59726 8.43075 6.58157 8.46235 6.5594C8.49394 6.53723 8.52083 6.50902 8.54145 6.4764C8.56208 6.44378 8.57604 6.40739 8.58252 6.36935C8.58901 6.3313 8.58789 6.29234 8.57923 6.25473C8.57057 6.21712 8.55454 6.1816 8.53208 6.15022C8.50961 6.11883 8.48115 6.09221 8.44833 6.0719C8.41552 6.05158 8.379 6.03796 8.3409 6.03184C8.30279 6.02572 8.26385 6.0272 8.22632 6.03622C7.39394 6.22786 6.96069 6.43858 6.77774 6.7408C6.73356 6.81231 6.70452 6.89213 6.69244 6.97531C6.68035 7.0585 6.68547 7.14328 6.70747 7.22441C6.8519 7.77751 7.59762 8.06454 8.58537 8.29669C7.98148 8.46375 7.52158 8.66828 7.32309 8.97829C7.2725 9.05562 7.23848 9.14259 7.22317 9.23372C7.20786 9.32485 7.21159 9.41816 7.23413 9.50778C7.36582 10.0526 8.09424 10.3443 9.00845 10.6254C8.57014 10.8023 8.23695 11.0063 8.0866 11.2855C8.04189 11.3673 8.01421 11.4573 8.00524 11.55C7.99626 11.6428 8.00617 11.7365 8.03437 11.8253C8.16992 12.2689 8.65466 12.5473 9.23327 12.8001C8.63297 13.1021 8.16731 13.4863 8.30391 14.0929C8.32094 14.1685 8.3673 14.2342 8.43279 14.2756C8.49828 14.317 8.57754 14.3307 8.65312 14.3137C8.72871 14.2967 8.79444 14.2503 8.83584 14.1848C8.87725 14.1193 8.89094 14.0401 8.87391 13.9645C8.81459 13.7012 9.15541 13.4746 9.67984 13.2352V14.0287C9.67984 14.1062 9.71062 14.1805 9.76541 14.2352C9.82019 14.29 9.8945 14.3208 9.97198 14.3208C10.0495 14.3208 10.1238 14.29 10.1785 14.2352C10.2333 14.1805 10.2641 14.1062 10.2641 14.0287V13.2352C10.7885 13.4746 11.1294 13.7011 11.07 13.9645C11.0613 14.002 11.0601 14.0409 11.0664 14.0789C11.0728 14.1169 11.0866 14.1533 11.1071 14.186C11.1276 14.2186 11.1543 14.2469 11.1858 14.2692C11.2172 14.2914 11.2528 14.3073 11.2904 14.3157C11.328 14.3242 11.3669 14.3251 11.4048 14.3185C11.4428 14.3119 11.4791 14.2978 11.5116 14.2771C11.5441 14.2564 11.5722 14.2294 11.5942 14.1978C11.6162 14.1662 11.6318 14.1305 11.64 14.0929C11.7766 13.4863 11.311 13.1021 10.7107 12.8001C11.2893 12.5473 11.7741 12.2688 11.9096 11.8254C11.9378 11.7365 11.9477 11.6429 11.9387 11.5501C11.9298 11.4573 11.9021 11.3673 11.8573 11.2855C11.707 11.0062 11.3738 10.8022 10.9355 10.6253ZM9.67984 12.355C9.18587 12.149 8.67024 11.907 8.59312 11.6547C8.58736 11.6397 8.58508 11.6237 8.58645 11.6077C8.58782 11.5917 8.5928 11.5763 8.60103 11.5626C8.70814 11.3635 9.16546 11.1747 9.67984 11.0057V12.355ZM9.67984 10.2162C9.2071 10.077 8.71866 9.93301 8.35299 9.77234C7.89469 9.57096 7.815 9.42423 7.80203 9.37048C7.798 9.3575 7.7971 9.34375 7.79938 9.33035C7.80166 9.31695 7.80706 9.30428 7.81516 9.29336C7.98732 9.0244 8.84131 8.81528 9.67984 8.64296V10.2162ZM9.67984 4.82021H8.11885C8.17045 4.77347 8.21976 4.72427 8.26663 4.67279C8.4487 4.47083 8.59244 4.23739 8.69081 3.9839C8.71901 3.91174 8.71739 3.83133 8.68631 3.76036C8.65522 3.68939 8.59721 3.63368 8.52505 3.60548C8.45289 3.57727 8.37248 3.57889 8.30151 3.60998C8.23054 3.64106 8.17483 3.69907 8.14663 3.77123C8.07396 3.95879 7.96774 4.13154 7.83315 4.28102C7.49665 4.65335 7.06605 4.7783 6.82577 4.82021H5.42907L7.18069 2.78839C7.35197 2.58863 7.5858 2.45271 7.84415 2.40275C8.1025 2.35278 8.37015 2.39171 8.60356 2.5132L9.67984 3.06992V4.82021ZM12.1288 9.29332C12.1369 9.30424 12.1423 9.31692 12.1446 9.33033C12.1469 9.34374 12.146 9.35749 12.1419 9.37048C12.129 9.42423 12.0493 9.57096 11.591 9.77234C11.2253 9.93301 10.7369 10.0769 10.2641 10.2162V8.64296C11.1026 8.81528 11.9566 9.02433 12.1288 9.29332ZM11.3404 2.51324C11.5738 2.39174 11.8414 2.3528 12.0998 2.40276C12.3581 2.45272 12.592 2.58863 12.7633 2.78839L14.5149 4.82021H13.1182C12.8779 4.7783 12.4473 4.65335 12.1108 4.28106C11.9762 4.13155 11.87 3.95877 11.7973 3.77119C11.7836 3.73515 11.7629 3.70218 11.7363 3.67419C11.7098 3.6462 11.6779 3.62374 11.6427 3.60812C11.6074 3.59249 11.5694 3.58401 11.5308 3.58315C11.4923 3.5823 11.4539 3.58909 11.418 3.60313C11.3821 3.61717 11.3493 3.6382 11.3215 3.66498C11.2937 3.69176 11.2716 3.72378 11.2562 3.75918C11.2409 3.79458 11.2328 3.83266 11.2322 3.87123C11.2317 3.9098 11.2388 3.9481 11.2532 3.9839C11.3516 4.2374 11.4953 4.47085 11.6774 4.67282C11.7242 4.72429 11.7735 4.77348 11.8251 4.82021H10.2641V3.06992L11.3404 2.51324ZM9.97198 1.36322C9.89494 1.36322 9.81963 1.34037 9.75558 1.29757C9.69152 1.25477 9.6416 1.19394 9.61212 1.12277C9.58264 1.05159 9.57492 0.973278 9.58995 0.897721C9.60498 0.822164 9.64208 0.75276 9.69655 0.698286C9.75103 0.643813 9.82043 0.606716 9.89599 0.591686C9.97154 0.576657 10.0499 0.584371 10.121 0.613852C10.1922 0.643333 10.253 0.693257 10.2958 0.757311C10.3386 0.821365 10.3615 0.896672 10.3615 0.97371C10.3614 1.07698 10.3203 1.17598 10.2473 1.249C10.1742 1.32202 10.0752 1.36309 9.97198 1.36322ZM11.3508 11.6546C11.2737 11.9069 10.7581 12.149 10.2641 12.355V11.0057C10.7785 11.1747 11.2358 11.3635 11.3429 11.5625C11.3511 11.5763 11.3561 11.5917 11.3575 11.6077C11.3588 11.6236 11.3566 11.6397 11.3508 11.6546H11.3508Z" fill="#1346AA"/>
</svg>
