<svg width="20" height="20" viewBox="0 0 20 20" fill="none" xmlns="http://www.w3.org/2000/svg">
<g id="Meeting">
<path id="Vector" d="M15 6.6665V17.4998" stroke="#3B2CAD" stroke-width="2" stroke-linecap="round" stroke-linejoin="round"/>
<path id="Vector_2" d="M14.9997 4.16667C14.5394 4.16667 14.1663 3.79357 14.1663 3.33333C14.1663 2.8731 14.5394 2.5 14.9997 2.5C15.4599 2.5 15.833 2.8731 15.833 3.33333C15.833 3.79357 15.4599 4.16667 14.9997 4.16667Z" stroke="#3B2CAD" stroke-width="2" stroke-linecap="round" stroke-linejoin="round"/>
<path id="Vector_3" d="M10.8337 9.1665L13.3337 8.33317L15.0003 6.6665L17.5003 11.6665M4.16699 6.6665V17.4998" stroke="#3B2CAD" stroke-width="2" stroke-linecap="round" stroke-linejoin="round"/>
<path id="Vector_4" d="M4.16667 4.16667C3.70643 4.16667 3.33333 3.79357 3.33333 3.33333C3.33333 2.8731 3.70643 2.5 4.16667 2.5C4.6269 2.5 5 2.8731 5 3.33333C5 3.79357 4.6269 4.16667 4.16667 4.16667Z" stroke="#3B2CAD" stroke-width="2" stroke-linecap="round" stroke-linejoin="round"/>
<path id="Vector_5" d="M8.33333 9.99984L5.83333 9.1665L4.16667 6.6665L2.5 11.6665" stroke="#3B2CAD" stroke-width="2" stroke-linecap="round" stroke-linejoin="round"/>
</g>
</svg>
