<svg width="20" height="22" viewBox="0 0 20 22" fill="none" xmlns="http://www.w3.org/2000/svg">
<path d="M3.62683 6.22267C3.5612 6.22267 3.49532 6.19794 3.44479 6.14846C3.34193 6.04793 3.34011 5.88309 3.44063 5.78022C3.86303 5.34819 3.86303 4.64506 3.44063 4.21277C3.1388 3.90417 2.97266 3.49662 2.97266 3.06484C2.97266 2.63333 3.1388 2.22552 3.44063 1.91692C3.54115 1.81406 3.70599 1.81223 3.80886 1.91275C3.91172 2.01328 3.91355 2.17812 3.81303 2.28099C3.39063 2.71302 3.39063 3.41615 3.81303 3.84844C4.11485 4.15704 4.281 4.56459 4.281 4.99637C4.281 5.42788 4.11485 5.83569 3.81303 6.14429C3.76198 6.19663 3.69427 6.22267 3.62683 6.22267ZM16.3712 6.22267C16.3055 6.22267 16.2397 6.19794 16.1891 6.14846C16.0863 6.04793 16.0844 5.88309 16.185 5.78022C16.6074 5.34819 16.6074 4.64506 16.185 4.21277C15.8831 3.90417 15.717 3.49662 15.717 3.06484C15.717 2.63333 15.8831 2.22552 16.185 1.91692C16.2855 1.81406 16.4503 1.81223 16.5532 1.91275C16.6561 2.01328 16.6579 2.17812 16.5574 2.28099C16.135 2.71302 16.135 3.41615 16.5574 3.84844C16.8592 4.15704 17.0253 4.56459 17.0253 4.99637C17.0253 5.42788 16.8592 5.83569 16.5574 6.14429C16.5063 6.19663 16.4389 6.22267 16.3712 6.22267ZM9.999 3.6448C9.93337 3.6448 9.86775 3.62006 9.81696 3.57058C9.7141 3.47006 9.71228 3.30521 9.8128 3.20235C10.1357 2.87214 10.1357 2.33463 9.8128 2.00442C9.55967 1.74557 9.42009 1.40338 9.42009 1.0414C9.42009 0.679415 9.55941 0.337225 9.8128 0.0783698C9.91332 -0.0244954 10.0782 -0.0263182 10.181 0.0742032C10.2839 0.174725 10.2857 0.339569 10.1852 0.442434C9.86228 0.772645 9.86228 1.31015 10.1852 1.64036C10.4383 1.89921 10.5779 2.2414 10.5779 2.60338C10.5779 2.96536 10.4386 3.30755 10.1852 3.56641C10.1342 3.61875 10.0667 3.6448 9.999 3.6448Z" fill="#5C5C66"/>
<path d="M11.354 4.47429C11.354 4.5571 11.3462 4.64148 11.3305 4.72481L11.1644 5.61388C11.1412 5.7381 11.0324 5.82638 10.9087 5.82638C10.899 5.82638 10.8894 5.82586 10.8798 5.82482C10.3011 5.7605 9.70111 5.7605 9.12246 5.82482C8.98704 5.83992 8.86282 5.74774 8.83782 5.61388L8.67168 4.72507C8.59746 4.3282 8.70293 3.92273 8.96074 3.61231C9.21855 3.30189 9.59772 3.12402 10.0011 3.12402C10.7472 3.12402 11.354 3.72976 11.354 4.47429Z" fill="#5C5C66"/>
<path d="M18.1789 13.9555H1.82045C1.6767 13.9555 1.56003 13.8388 1.56003 13.695C1.56003 11.6041 2.33035 9.59814 3.72905 8.0463C5.11734 6.50619 7.01188 5.53327 9.06372 5.30723C9.68013 5.23874 10.3189 5.23874 10.9356 5.30723C12.9872 5.53353 14.8817 6.50619 16.27 8.0463C17.6687 9.59814 18.439 11.6041 18.439 13.695C18.4393 13.8388 18.3226 13.9555 18.1789 13.9555ZM2.08503 13.4346H17.9143C17.7877 9.50647 14.8054 6.25801 10.8783 5.82494C10.2991 5.76061 9.69966 5.76061 9.12101 5.82494C5.1939 6.25801 2.21186 9.50647 2.08503 13.4346ZM3.56525 15.7633C3.44988 15.6388 3.29467 15.57 3.12853 15.57H1.68763C1.35274 15.57 1.08008 15.8549 1.08008 16.2055V21.0805C1.08008 21.4308 1.35274 21.7159 1.68763 21.7159H3.12853C3.46368 21.7159 3.73608 21.4308 3.73608 21.0805L3.73634 16.2055C3.73634 16.0396 3.67567 15.8825 3.56525 15.7633ZM2.68816 16.7935C2.68816 16.9479 2.56264 17.0734 2.40821 17.0734C2.25378 17.0734 2.12826 16.9479 2.12826 16.7935C2.12826 16.6393 2.25378 16.5135 2.40821 16.5135C2.56264 16.5135 2.68816 16.6393 2.68816 16.7935Z" fill="#5C5C66"/>
<path d="M10.0787 21.0651H3.47526C3.40625 21.0651 3.33984 21.0378 3.29115 20.9888C3.24219 20.9399 3.21484 20.8737 3.21484 20.8047L3.2151 16.8984C3.2151 16.7547 3.33177 16.638 3.47552 16.638H3.96693C4.35521 16.638 4.72865 16.4742 4.99168 16.1883C5.35288 15.7956 5.86616 15.5703 6.39976 15.5703H10.2133C10.8021 15.5703 11.281 16.0492 11.281 16.638C11.281 17.2268 10.8021 17.7057 10.2133 17.7057H8.02581C7.88935 17.7057 7.77841 17.8167 7.77841 17.9531C7.77841 18.0896 7.88935 18.2005 8.02581 18.2005H10.9589C11.5068 18.2005 12.0514 18.0628 12.5334 17.8018L15.1165 16.4044C15.6144 16.1352 16.229 16.2857 16.5459 16.7547C16.8839 17.2547 16.7524 17.9373 16.2527 18.2758L13.8402 19.9107C12.7258 20.6659 11.425 21.0651 10.0787 21.0651ZM3.73594 20.5443H10.0787C11.3206 20.5443 12.5204 20.1761 13.5485 19.4794L15.961 17.8445C16.2232 17.6669 16.2923 17.3089 16.1149 17.0464C15.9485 16.8003 15.6261 16.7211 15.3647 16.8625L12.7816 18.2599C12.2237 18.5617 11.5935 18.7211 10.9592 18.7211H8.02555C7.60185 18.7211 7.25731 18.3766 7.25731 17.9529C7.25731 17.5292 7.60185 17.1846 8.02555 17.1846H10.2131C10.5146 17.1846 10.7599 16.9393 10.7599 16.6378C10.7599 16.3362 10.5146 16.0909 10.2131 16.0909H6.3995C6.01121 16.0909 5.63777 16.255 5.37475 16.5406C5.01355 16.9333 4.50027 17.1586 3.96667 17.1586H3.73568L3.73594 20.5443Z" fill="#5C5C66"/>
<path d="M17.8645 16.0904H2.13528C2.06028 16.0904 1.98919 16.0581 1.93971 16.0018L0.0646988 13.8664C-0.00274948 13.7896 -0.0188956 13.6802 0.0230317 13.5873C0.0652195 13.494 0.157928 13.4341 0.260273 13.4341H19.7395C19.8419 13.4341 19.9346 13.494 19.9768 13.5873C20.019 13.6805 20.0028 13.7896 19.9351 13.8664L18.0601 16.0018C18.0106 16.0581 17.9395 16.0904 17.8645 16.0904ZM2.25325 15.5696H17.7468L19.1645 13.955H0.835536L2.25325 15.5696ZM4.29311 11.8315C4.2629 11.8315 4.23217 11.8263 4.20222 11.8151C4.06732 11.7648 3.99883 11.6151 4.0491 11.4802C4.65639 9.84921 5.92463 8.52446 7.52906 7.84581C7.66162 7.78982 7.81422 7.8518 7.87047 7.9841C7.92646 8.11665 7.86448 8.26925 7.73219 8.3255C6.25926 8.94842 5.09493 10.1646 4.53764 11.6617C4.49806 11.7667 4.39884 11.8315 4.29311 11.8315Z" fill="#5C5C66"/>
</svg>
