<svg width="45" height="20" viewBox="0 0 45 20" fill="none" xmlns="http://www.w3.org/2000/svg">
<path d="M11.1207 19.9993C10.3127 19.9993 9.52277 19.7596 8.85091 19.3107C8.17904 18.8618 7.65538 18.2237 7.34615 17.4772C7.03693 16.7306 6.95602 15.9092 7.11366 15.1166C7.2713 14.3241 7.66042 13.5961 8.23179 13.0248C8.80317 12.4534 9.53115 12.0643 10.3237 11.9066C11.1162 11.749 11.9377 11.8299 12.6842 12.1391C13.4307 12.4483 14.0688 12.972 14.5177 13.6439C14.9667 14.3157 15.2063 15.1056 15.2063 15.9137C15.2048 16.9968 14.7739 18.0351 14.008 18.801C13.2422 19.5669 12.2038 19.9978 11.1207 19.9993ZM11.1207 13.4216C10.6278 13.4216 10.146 13.5677 9.73617 13.8416C9.32634 14.1154 9.00692 14.5046 8.81829 14.96C8.62967 15.4154 8.58032 15.9165 8.67648 16.3999C8.77264 16.8833 9.00999 17.3274 9.35852 17.6759C9.70705 18.0244 10.1511 18.2618 10.6345 18.3579C11.118 18.4541 11.619 18.4047 12.0744 18.2161C12.5298 18.0275 12.919 17.7081 13.1929 17.2982C13.4667 16.8884 13.6129 16.4066 13.6129 15.9137C13.6116 15.2533 13.3485 14.6204 12.8814 14.1537C12.4142 13.687 11.7811 13.4246 11.1207 13.4239V13.4216ZM34.9458 19.9993C34.1377 19.9993 33.3478 19.7596 32.6759 19.3107C32.0041 18.8618 31.4804 18.2237 31.1712 17.4772C30.862 16.7306 30.7811 15.9092 30.9387 15.1166C31.0963 14.3241 31.4855 13.5961 32.0568 13.0248C32.6282 12.4534 33.3562 12.0643 34.1487 11.9066C34.9412 11.749 35.7627 11.8299 36.5092 12.1391C37.2558 12.4483 37.8939 12.972 38.3428 13.6439C38.7917 14.3157 39.0313 15.1056 39.0313 15.9137C39.0299 16.9968 38.5989 18.0351 37.8331 18.801C37.0672 19.5669 36.0289 19.9978 34.9458 19.9993ZM34.9458 13.4216C34.4529 13.4216 33.971 13.5677 33.5612 13.8416C33.1514 14.1154 32.832 14.5046 32.6433 14.96C32.4547 15.4154 32.4054 15.9165 32.5015 16.3999C32.5977 16.8833 32.835 17.3274 33.1836 17.6759C33.5321 18.0244 33.9761 18.2618 34.4596 18.3579C34.943 18.4541 35.4441 18.4047 35.8995 18.2161C36.3548 18.0275 36.7441 17.7081 37.0179 17.2982C37.2917 16.8884 37.4379 16.4066 37.4379 15.9137C37.4364 15.2534 37.1733 14.6206 36.7062 14.154C36.2391 13.6873 35.606 13.4248 34.9458 13.4239V13.4216Z" fill="#5C5C66"/>
<path d="M31.6307 16.7126H15.2303C15.019 16.7126 14.8164 16.6286 14.6669 16.4792C14.5175 16.3298 14.4336 16.1272 14.4336 15.9159C14.4336 15.7046 14.5175 15.5019 14.6669 15.3525C14.8164 15.2031 15.019 15.1191 15.2303 15.1191H31.6307C31.842 15.1191 32.0447 15.2031 32.1941 15.3525C32.3435 15.5019 32.4275 15.7046 32.4275 15.9159C32.4275 16.1272 32.3435 16.3298 32.1941 16.4792C32.0447 16.6286 31.842 16.7126 31.6307 16.7126Z" fill="#5C5C66"/>
<path d="M7.81412 16.9438H3.83054C3.26548 16.9441 2.70735 16.8194 2.19621 16.5785C1.68507 16.3376 1.2336 15.9865 0.874191 15.5505C0.514784 15.1145 0.256358 14.6043 0.117459 14.0566C-0.0214387 13.5089 -0.0373642 12.9372 0.0708261 12.3826L0.469185 10.347C0.612812 9.59727 0.978147 8.90793 1.51791 8.36817C2.05767 7.8284 2.74701 7.46307 3.49671 7.31944C3.52562 7.31345 3.5549 7.30946 3.58435 7.30749L9.14464 6.85735C10.1433 6.66328 11.0689 6.19704 11.8192 5.5101C13.2087 4.21782 18.2312 0 24.5149 0C32.4558 0 36.931 3.69358 37.4162 4.11584L39.6055 5.67263C40.1279 5.86663 40.6613 6.02944 41.203 6.16022C43.6505 6.82627 44.9276 7.22224 44.9292 8.26435L44.9388 13.5227C44.9395 13.9417 44.8576 14.3567 44.6978 14.744C44.538 15.1313 44.3033 15.4832 44.0073 15.7797C43.7113 16.0763 43.3598 16.3115 42.9727 16.472C42.5857 16.6325 42.1709 16.7151 41.7519 16.7151H39.0534C38.8421 16.7151 38.6395 16.6312 38.4901 16.4818C38.3406 16.3324 38.2567 16.1297 38.2567 15.9184C38.2567 15.7071 38.3406 15.5045 38.4901 15.3551C38.6395 15.2056 38.8421 15.1217 39.0534 15.1217H41.7503C42.1729 15.1217 42.5782 14.9538 42.877 14.655C43.1759 14.3562 43.3437 13.9509 43.3437 13.5283L43.335 8.53045C42.5088 8.18552 41.6562 7.90764 40.7855 7.69948C40.0539 7.55892 39.3462 7.31451 38.6837 6.97367L36.4601 5.39218C36.4346 5.37484 36.4103 5.35567 36.3876 5.33482C36.347 5.29897 32.1132 1.59582 24.5165 1.59582C18.8136 1.59582 14.1879 5.48699 12.9051 6.67968C11.9268 7.57918 10.716 8.18642 9.40995 8.43246C9.38084 8.4388 9.35126 8.44279 9.32151 8.44441L3.76282 8.89455C3.33356 8.98573 2.94074 9.20149 2.6335 9.51482C2.32627 9.82815 2.11827 10.2251 2.03553 10.6561L1.63717 12.6925C1.57417 13.0164 1.58361 13.3501 1.66481 13.6699C1.746 13.9897 1.89695 14.2876 2.10682 14.5421C2.31669 14.7967 2.58029 15.0017 2.87871 15.1424C3.17714 15.2831 3.503 15.356 3.83293 15.3559H7.81651C8.02782 15.3559 8.23046 15.4399 8.37988 15.5893C8.52929 15.7387 8.61323 15.9413 8.61323 16.1526C8.61323 16.364 8.52929 16.5666 8.37988 16.716C8.23046 16.8654 8.02782 16.9494 7.81651 16.9494L7.81412 16.9438Z" fill="#5C5C66"/>
<path d="M22.6886 8.50678H13.9725C13.8029 8.50662 13.6378 8.45235 13.5012 8.35186C13.3646 8.25137 13.2636 8.10991 13.2129 7.94806C13.1622 7.78621 13.1646 7.61242 13.2195 7.45197C13.2744 7.29152 13.3791 7.15278 13.5184 7.05596C13.7731 6.87731 14.0146 6.68054 14.241 6.46718C16.8178 4.05494 20.1577 2.62078 23.6813 2.41349C23.8008 2.40641 23.9203 2.4267 24.0308 2.47281C24.1412 2.51893 24.2397 2.58965 24.3187 2.67959C24.3983 2.76893 24.4567 2.87506 24.4897 2.9901C24.5227 3.10513 24.5293 3.22611 24.5091 3.34405C24.2507 4.91812 23.8901 6.47368 23.4295 8.00087C23.3711 8.14985 23.2692 8.2778 23.137 8.36803C23.0049 8.45827 22.8486 8.50662 22.6886 8.50678ZM16.1651 6.91335H22.1142C22.3356 6.1477 22.5779 4.99644 22.7515 4.09854C20.3424 4.42569 18.0666 5.3983 16.1651 6.91335ZM30.4813 8.90514H25.5416C25.4202 8.90505 25.3005 8.87721 25.1915 8.82376C25.0825 8.77031 24.9871 8.69265 24.9127 8.59672C24.8383 8.50079 24.7868 8.38913 24.7621 8.27025C24.7375 8.15138 24.7403 8.02845 24.7704 7.91084L26.0213 3.03493C26.0698 2.85023 26.1827 2.68891 26.3395 2.57996C26.4963 2.47102 26.6869 2.42159 26.8769 2.44057C28.5538 2.65316 30.1999 3.06174 31.7815 3.65796C31.9673 3.72793 32.1203 3.86473 32.2105 4.04157C32.3006 4.21842 32.3216 4.42256 32.2691 4.61402L31.2493 8.32035C31.2029 8.48844 31.1027 8.63667 30.964 8.74231C30.8252 8.84794 30.6557 8.90514 30.4813 8.90514ZM26.5686 7.31171H29.8742L30.5355 4.90721C29.5077 4.56464 28.4554 4.3007 27.3876 4.11766L26.5686 7.31171ZM35.0457 9.27163L33.1423 9.26366C33.0227 9.26326 32.9047 9.23592 32.7971 9.18367C32.6894 9.13142 32.5949 9.05561 32.5206 8.96185C32.4463 8.8681 32.3941 8.75881 32.3678 8.6421C32.3415 8.52539 32.3418 8.40425 32.3687 8.28768L33.1415 4.94147C33.1687 4.82399 33.2223 4.71421 33.2981 4.62042C33.3739 4.52663 33.47 4.45128 33.5791 4.40003C33.6883 4.34879 33.8077 4.32299 33.9283 4.32459C34.0488 4.32619 34.1675 4.35514 34.2753 4.40926C35.2615 4.91301 36.0913 5.67668 36.675 6.61776C36.7459 6.74343 36.7813 6.886 36.7776 7.03025C36.7738 7.1745 36.7309 7.31502 36.6535 7.43679L35.7213 8.90275C35.649 9.0163 35.5491 9.10969 35.431 9.1742C35.3129 9.2387 35.1803 9.27222 35.0457 9.27163ZM34.1422 7.67819H34.6091L35.0194 7.03285C34.8422 6.8129 34.6456 6.6092 34.4322 6.42416L34.1422 7.67819ZM27.5366 14.6837H22.5651C22.3538 14.6837 22.1511 14.5998 22.0017 14.4504C21.8523 14.301 21.7684 14.0983 21.7684 13.887C21.7684 13.6757 21.8523 13.4731 22.0017 13.3236C22.1511 13.1742 22.3538 13.0903 22.5651 13.0903H27.5366C27.7479 13.0903 27.9506 13.1742 28.1 13.3236C28.2494 13.4731 28.3333 13.6757 28.3333 13.887C28.3333 14.0983 28.2494 14.301 28.1 14.4504C27.9506 14.5998 27.7479 14.6837 27.5366 14.6837ZM3.86216 13.0983H1.05453C0.843227 13.0983 0.640579 13.0143 0.491166 12.8649C0.341752 12.7155 0.257812 12.5128 0.257812 12.3015C0.257812 12.0902 0.341752 11.8876 0.491166 11.7382C0.640579 11.5888 0.843227 11.5048 1.05453 11.5048H3.42795L3.73548 11.0228H1.68155C1.47024 11.0228 1.2676 10.9389 1.11818 10.7895C0.968769 10.64 0.884829 10.4374 0.884829 10.2261C0.884829 10.0148 0.968769 9.81215 1.11818 9.66273C1.2676 9.51332 1.47024 9.42938 1.68155 9.42938H5.1871C5.33002 9.42942 5.47029 9.46791 5.59322 9.5408C5.71615 9.6137 5.81721 9.71832 5.88581 9.8437C5.9544 9.96908 5.98801 10.1106 5.98311 10.2534C5.97821 10.3963 5.93497 10.5351 5.85794 10.6555L4.533 12.731C4.46096 12.8436 4.36176 12.9362 4.24453 13.0004C4.1273 13.0646 3.99581 13.0982 3.86216 13.0983Z" fill="#5C5C66"/>
</svg>
