<svg width="50" height="38" viewBox="0 0 50 38" fill="none" xmlns="http://www.w3.org/2000/svg">
<path id="Vector" d="M27.263 37.6041C26.8228 37.6041 26.4706 37.3794 26.13 37.1622C26.1234 37.1581 26.117 37.1539 26.1106 37.1496L20.6136 33.4041C19.0869 34.4008 17.5572 35.4026 16.0291 36.4033L14.9059 37.1388C14.5825 37.3675 14.2823 37.4788 13.9882 37.4788C13.6903 37.4788 13.4156 37.3603 13.2151 37.1451C12.9428 36.8534 12.8289 36.4153 12.867 35.8065V27.7082C12.867 27.4687 12.9801 27.2433 13.1721 27.1L32.2351 12.8696L9.11366 25.0605C8.86483 25.1919 8.56372 25.1746 8.33143 25.0157L7.59958 24.5155C5.50172 23.0817 3.40354 21.6476 1.30041 20.2133C0.691661 19.8443 -0.0919402 19.2591 0.00881606 18.4117C0.119796 17.4784 1.24888 17.1103 1.64421 16.9855L18.2552 10.9615L47.9251 0.271178C47.9509 0.261798 47.9818 0.250099 48.0158 0.237136C48.344 0.112139 48.6652 0 48.987 0C49.3534 0 49.6664 0.159776 49.8459 0.438226C50.1618 0.928728 49.9076 1.48911 49.8241 1.67323C49.8116 1.70074 49.7975 1.72751 49.7819 1.75333L28.6404 36.6032C28.4777 36.883 28.053 37.6041 27.263 37.6041ZM26.9559 35.8886C27.0294 35.9354 27.1232 35.9951 27.199 36.0379C27.2324 35.9935 27.2767 35.9285 27.3314 35.8345C27.3337 35.8303 27.3361 35.8263 27.3385 35.8222L47.9272 1.88391L18.7711 12.389L2.14662 18.418C2.1365 18.4215 2.12638 18.425 2.11616 18.4283C1.89842 18.4969 1.75023 18.5592 1.65085 18.6089C1.74128 18.6867 1.88293 18.7921 2.10246 18.9244C2.11469 18.9317 2.1267 18.9394 2.1385 18.9475C4.24775 20.3859 6.35214 21.8243 8.45611 23.2623L8.81034 23.5044L40.1155 6.99866C40.4659 6.81401 40.8995 6.92974 41.1112 7.26478C41.3228 7.59983 41.2409 8.04122 40.9235 8.27825L14.3851 28.0887V35.6653L15.1975 35.1333C16.8678 34.0395 18.5399 32.9445 20.208 31.8562C20.4648 31.6886 20.7968 31.692 21.0501 31.8646L26.9559 35.8886Z" fill="#2D3134"/>
</svg>
